<svg width="512" height="512" viewBox="0 0 512 512" xmlns="http://www.w3.org/2000/svg">
  <defs>
    <clipPath id="squircle">
      <rect x="0" y="0" width="512" height="512" rx="110" ry="110" />
    </clipPath>
    
    <g id="complexGul">
      <path d="M-25,0 L-18,-18 L0,-25 L18,-18 L25,0 L18,18 L0,25 L-18,18 Z M-15,0 L-10,-10 L0,-15 L10,-10 L15,0 L10,10 L0,15 L-10,10 Z" fill="none" stroke="#FFC107" stroke-width="1.5"/>
      <path d="M0,-20 L0,20 M-20,0 L20,0 M-12,-12 L12,12 M-12,12 L12,-12" fill="none" stroke="#FFC107" stroke-width="1"/>
      <path d="M-5,-22 L5,-22 M-5,22 L5,22 M-22,-5 L-22,5 M22,-5 L22,5" fill="none" stroke="#FFC107" stroke-width="2"/>
      <rect x="-3" y="-3" width="6" height="6" fill="#FFC107" transform="rotate(45)"/>
    </g>
  </defs>

  <g clip-path="url(#squircle)">
    <rect width="512" height="512" fill="#00973F" />
    
    <rect width="145" height="512" fill="#C8102E" />

    <g transform="translate(72.5, 65) scale(1.8)">
      <use href="#complexGul" y="0" />
      <use href="#complexGul" y="48" />
      <use href="#complexGul" y="96" />
      <use href="#complexGul" y="144" />
      <use href="#complexGul" y="192" />
    </g>

    <g transform="translate(72.5, 450) scale(1)" fill="#FFC107">
       <path d="M-50,10 Q0,35 50,10" fill="none" stroke="#FFC107" stroke-width="2"/>
       <path d="M-45,12 L-55,5 L-50,15 Z M-35,18 L-45,12 L-38,22 Z M-25,22 L-35,18 L-28,26 Z M-15,24 L-25,22 L-18,28 Z"/>
       <path d="M45,12 L55,5 L50,15 Z M35,18 L45,12 L38,22 Z M25,22 L35,18 L28,26 Z M15,24 L25,22 L18,28 Z" transform="scale(-1,1)"/>
    </g>

    <g transform="translate(330, 140)">
      <path d="M0,0 A60,60 0 1,0 0,110 A48,48 0 1,1 0,0 Z" fill="white" />
      <g fill="white" transform="translate(-95, 10)">
        <polygon points="10,0 13,8 21,8 15,13 17,21 10,16 3,21 5,13 -1,8 7,8" />
        <polygon points="45,-15 48,-7 56,-7 50,-2 52,6 45,1 38,6 40,-2 34,-7 42,-7" />
        <polygon points="80,-5 83,3 91,3 85,8 87,16 80,11 73,16 75,8 69,3 77,3" />
        <polygon points="35,25 38,33 46,33 40,38 42,46 35,41 28,46 30,38 24,33 32,33" />
        <polygon points="70,30 73,38 81,38 75,43 77,51 70,46 63,51 65,43 59,38 67,38" />
      </g>
    </g>
  </g>
</svg>